<svg width="145" height="133" viewBox="0 0 145 133" fill="none" xmlns="http://www.w3.org/2000/svg">
<path d="M32.0189 105.46L37.1218 87.7717C32.974 90.1665 10.7581 58.3189 28.2101 37.7047C41.1576 22.4112 55.9249 17.9187 78.0008 17.8395C101.554 17.755 118.861 32.8576 124.637 41.8781C135.748 66.6362 125.068 83.8883 119.219 89.2309C100.696 106.664 75.7643 105.334 65.6138 102.49C58.4665 104.258 40.2391 105.206 32.0189 105.46Z" fill="#001AFF"/>
<path d="M37.1218 87.7717L32.0189 105.46C40.2391 105.206 58.4665 104.258 65.6138 102.49C75.7643 105.334 100.696 106.664 119.219 89.2309M37.1218 87.7717C32.974 90.1665 10.7581 58.3189 28.2101 37.7047C41.1576 22.4112 55.9249 17.9187 78.0008 17.8395C101.554 17.755 118.861 32.8576 124.637 41.8781C135.748 66.6362 125.068 83.8883 119.219 89.2309M37.1218 87.7717C28.0645 78.9612 17.6439 57.5719 48.4201 42.4989C79.1963 27.4258 101.479 37.1366 108.773 43.8761C119.365 50.6777 136.283 69.2708 119.219 89.2309" stroke="#001AFF"/>
<path d="M41.5498 47.7427H58.3809V54.3638H50.6611V56.5317H58.3809V62.9185H50.6611V71.1362H41.5498V47.7427ZM60.3443 47.7427H77.1754V54.3638H69.4557V56.5317H77.1754V62.9185H69.4557V71.1362H60.3443V47.7427ZM79.1389 47.7427H95.9699V54.3638H88.2502V56.5317H95.9699V62.9185H88.2502V71.1362H79.1389V47.7427ZM97.9334 47.7427H114.764V54.3638H107.045V56.5317H114.764V62.9185H107.045V71.1362H97.9334V47.7427Z" fill="white"/>
</svg>
