<?xml version="1.0" encoding="UTF-8" standalone="no"?>
<!-- Created with Inkscape (http://www.inkscape.org/) -->

<svg
   version="1.1"
   id="svg1"
   width="85.536018"
   height="105.57996"
   viewBox="0 0 85.536015 105.57995"
   sodipodi:docname="9952.eps"
   xmlns:inkscape="http://www.inkscape.org/namespaces/inkscape"
   xmlns:sodipodi="http://sodipodi.sourceforge.net/DTD/sodipodi-0.dtd"
   xmlns="http://www.w3.org/2000/svg"
   xmlns:svg="http://www.w3.org/2000/svg">
  <defs
     id="defs1">
    <filter
       style="color-interpolation-filters:sRGB"
       inkscape:label="Greyscale"
       id="filter577"
       x="0"
       y="0"
       width="1"
       height="1">
      <feColorMatrix
         values="0.21 0.72 0.072 0 0 0.21 0.72 0.072 0 0 0.21 0.72 0.072 0 0 0 0 0 1 0 "
         id="feColorMatrix577" />
    </filter>
    <filter
       style="color-interpolation-filters:sRGB"
       inkscape:label="Greyscale"
       id="filter578"
       x="0"
       y="0"
       width="1"
       height="1">
      <feColorMatrix
         values="0.21 0.72 0.072 0 0 0.21 0.72 0.072 0 0 0.21 0.72 0.072 0 0 0 0 0 1 0 "
         id="feColorMatrix578" />
    </filter>
    <filter
       style="color-interpolation-filters:sRGB"
       inkscape:label="Greyscale"
       id="filter579"
       x="0"
       y="0"
       width="1"
       height="1">
      <feColorMatrix
         values="0.21 0.72 0.072 0 0 0.21 0.72 0.072 0 0 0.21 0.72 0.072 0 0 0 0 0 1 0 "
         id="feColorMatrix579" />
    </filter>
    <filter
       style="color-interpolation-filters:sRGB"
       inkscape:label="Greyscale"
       id="filter580"
       x="0"
       y="0"
       width="1"
       height="1">
      <feColorMatrix
         values="0.21 0.72 0.072 0 0 0.21 0.72 0.072 0 0 0.21 0.72 0.072 0 0 0 0 0 1 0 "
         id="feColorMatrix580" />
    </filter>
    <filter
       style="color-interpolation-filters:sRGB"
       inkscape:label="Greyscale"
       id="filter581"
       x="0"
       y="0"
       width="1"
       height="1">
      <feColorMatrix
         values="0.21 0.72 0.072 0 0 0.21 0.72 0.072 0 0 0.21 0.72 0.072 0 0 0 0 0 1 0 "
         id="feColorMatrix581" />
    </filter>
    <filter
       style="color-interpolation-filters:sRGB"
       inkscape:label="Greyscale"
       id="filter582"
       x="0"
       y="0"
       width="1"
       height="1">
      <feColorMatrix
         values="0.21 0.72 0.072 0 0 0.21 0.72 0.072 0 0 0.21 0.72 0.072 0 0 0 0 0 1 0 "
         id="feColorMatrix582" />
    </filter>
    <filter
       style="color-interpolation-filters:sRGB"
       inkscape:label="Greyscale"
       id="filter583"
       x="0"
       y="0"
       width="1"
       height="1">
      <feColorMatrix
         values="0.21 0.72 0.072 0 0 0.21 0.72 0.072 0 0 0.21 0.72 0.072 0 0 0 0 0 1 0 "
         id="feColorMatrix583" />
    </filter>
    <filter
       style="color-interpolation-filters:sRGB"
       inkscape:label="Greyscale"
       id="filter584"
       x="0"
       y="0"
       width="1"
       height="1">
      <feColorMatrix
         values="0.21 0.72 0.072 0 0 0.21 0.72 0.072 0 0 0.21 0.72 0.072 0 0 0 0 0 1 0 "
         id="feColorMatrix584" />
    </filter>
    <filter
       style="color-interpolation-filters:sRGB"
       inkscape:label="Greyscale"
       id="filter585"
       x="0"
       y="0"
       width="1"
       height="1">
      <feColorMatrix
         values="0.21 0.72 0.072 0 0 0.21 0.72 0.072 0 0 0.21 0.72 0.072 0 0 0 0 0 1 0 "
         id="feColorMatrix585" />
    </filter>
    <filter
       style="color-interpolation-filters:sRGB"
       inkscape:label="Greyscale"
       id="filter586"
       x="0"
       y="0"
       width="1"
       height="1">
      <feColorMatrix
         values="0.21 0.72 0.072 0 0 0.21 0.72 0.072 0 0 0.21 0.72 0.072 0 0 0 0 0 1 0 "
         id="feColorMatrix586" />
    </filter>
    <filter
       style="color-interpolation-filters:sRGB"
       inkscape:label="Greyscale"
       id="filter587"
       x="0"
       y="0"
       width="1"
       height="1">
      <feColorMatrix
         values="0.21 0.72 0.072 0 0 0.21 0.72 0.072 0 0 0.21 0.72 0.072 0 0 0 0 0 1 0 "
         id="feColorMatrix587" />
    </filter>
    <filter
       style="color-interpolation-filters:sRGB"
       inkscape:label="Greyscale"
       id="filter588"
       x="0"
       y="0"
       width="1"
       height="1">
      <feColorMatrix
         values="0.21 0.72 0.072 0 0 0.21 0.72 0.072 0 0 0.21 0.72 0.072 0 0 0 0 0 1 0 "
         id="feColorMatrix588" />
    </filter>
    <filter
       style="color-interpolation-filters:sRGB"
       inkscape:label="Greyscale"
       id="filter589"
       x="0"
       y="0"
       width="1"
       height="1">
      <feColorMatrix
         values="0.21 0.72 0.072 0 0 0.21 0.72 0.072 0 0 0.21 0.72 0.072 0 0 0 0 0 1 0 "
         id="feColorMatrix589" />
    </filter>
    <filter
       style="color-interpolation-filters:sRGB"
       inkscape:label="Greyscale"
       id="filter590"
       x="0"
       y="0"
       width="1"
       height="1">
      <feColorMatrix
         values="0.21 0.72 0.072 0 0 0.21 0.72 0.072 0 0 0.21 0.72 0.072 0 0 0 0 0 1 0 "
         id="feColorMatrix590" />
    </filter>
    <filter
       style="color-interpolation-filters:sRGB"
       inkscape:label="Greyscale"
       id="filter591"
       x="0"
       y="0"
       width="1"
       height="1">
      <feColorMatrix
         values="0.21 0.72 0.072 0 0 0.21 0.72 0.072 0 0 0.21 0.72 0.072 0 0 0 0 0 1 0 "
         id="feColorMatrix591" />
    </filter>
  </defs>
  <sodipodi:namedview
     id="namedview1"
     pagecolor="#ffffff"
     bordercolor="#000000"
     borderopacity="0.25"
     inkscape:showpageshadow="2"
     inkscape:pageopacity="0.0"
     inkscape:pagecheckerboard="0"
     inkscape:deskcolor="#d1d1d1" />
  <g
     id="g1"
     inkscape:groupmode="layer"
     inkscape:label="1"
     transform="translate(-664.00003,-534.28677)">
    <g
       id="group-R5">
      <path
         id="path364"
         d="m 5572.6,3599.82 v -346.11 c 0,-25.44 -24.69,-46.21 -54.78,-46.21 H 5083.7 c -30.09,0 -54.79,20.77 -54.79,46.21 v 346.11 h 543.69"
         style="fill:#eead4c;fill-opacity:1;fill-rule:nonzero;stroke:none;filter:url(#filter577)"
         transform="matrix(0.13333333,0,0,-0.13333333,0,1066.6667)" />
      <path
         id="path365"
         d="m 5035.41,3593.32 v -339.61 c 0,-21.89 21.66,-39.71 48.29,-39.71 h 434.12 c 26.62,0 48.27,17.82 48.27,39.71 v 339.61 z M 5517.82,3201 H 5083.7 c -33.8,0 -61.3,23.65 -61.3,52.71 v 346.11 c 0,3.6 2.91,6.51 6.51,6.51 h 543.69 c 3.59,0 6.5,-2.91 6.5,-6.51 v -346.11 c 0,-29.06 -27.49,-52.71 -61.28,-52.71"
         style="fill:#100f0d;fill-opacity:1;fill-rule:nonzero;stroke:none;filter:url(#filter578)"
         transform="matrix(0.13333333,0,0,-0.13333333,0,1066.6667)" />
      <path
         id="path366"
         d="m 5009.36,3704.85 h 582.68 c 12.65,0 22.98,-10.31 22.98,-22.97 v -59.17 c 0,-12.54 -10.33,-22.89 -22.98,-22.89 h -582.68 c -12.55,0 -22.86,10.35 -22.86,22.89 v 59.17 c 0,12.66 10.31,22.97 22.86,22.97"
         style="fill:#fefac9;fill-opacity:1;fill-rule:nonzero;stroke:none;filter:url(#filter579)"
         transform="matrix(0.13333333,0,0,-0.13333333,0,1066.6667)" />
      <path
         id="path367"
         d="m 5009.36,3698.35 c -9.02,0 -16.35,-7.38 -16.35,-16.47 v -59.17 c 0,-9.03 7.33,-16.38 16.35,-16.38 h 582.68 c 9.08,0 16.48,7.35 16.48,16.38 v 59.17 c 0,9.09 -7.4,16.47 -16.48,16.47 z m 582.68,-105.03 h -582.68 c -16.19,0 -29.36,13.19 -29.36,29.39 v 59.17 c 0,16.25 13.17,29.48 29.36,29.48 h 582.68 c 16.25,0 29.48,-13.23 29.48,-29.48 v -59.17 c 0,-16.2 -13.23,-29.39 -29.48,-29.39"
         style="fill:#100f0d;fill-opacity:1;fill-rule:nonzero;stroke:none;filter:url(#filter580)"
         transform="matrix(0.13333333,0,0,-0.13333333,0,1066.6667)" />
      <path
         id="path368"
         d="m 5034.08,3947.38 119.57,32.11 73.51,-274.64 h -128.08 l -65,242.53"
         style="fill:#e93736;fill-opacity:1;fill-rule:nonzero;stroke:none;filter:url(#filter581)"
         transform="matrix(0.13333333,0,0,-0.13333333,0,1066.6667)" />
      <path
         id="path369"
         d="m 5104.07,3711.36 h 114.62 l -69.64,260.16 -107.01,-28.73 z m 123.28,-13.01 c -0.05,0 -0.11,0 -0.19,0 h -128.08 c -2.94,0 -5.52,1.98 -6.28,4.82 l -65,242.53 c -0.92,3.47 1.13,7.03 4.59,7.96 l 119.57,32.11 c 1.66,0.44 3.44,0.22 4.94,-0.65 1.5,-0.86 2.58,-2.28 3.03,-3.95 l 73.12,-273.16 c 0.51,-0.94 0.81,-2.01 0.81,-3.16 0,-3.59 -2.91,-6.5 -6.51,-6.5"
         style="fill:#100f0d;fill-opacity:1;fill-rule:nonzero;stroke:none;filter:url(#filter582)"
         transform="matrix(0.13333333,0,0,-0.13333333,0,1066.6667)" />
      <path
         id="path370"
         d="m 5113.55,3920.52 c -2.87,0 -5.49,1.91 -6.27,4.82 -0.93,3.47 1.12,7.03 4.6,7.96 l 50.52,13.56 c 3.41,0.89 7.03,-1.13 7.96,-4.6 0.93,-3.47 -1.12,-7.04 -4.6,-7.96 l -50.53,-13.56 c -0.55,-0.14 -1.12,-0.22 -1.68,-0.22"
         style="fill:#100f0d;fill-opacity:1;fill-rule:nonzero;stroke:none;filter:url(#filter583)"
         transform="matrix(0.13333333,0,0,-0.13333333,0,1066.6667)" />
      <path
         id="path371"
         d="m 5133.18,3847.18 c -2.87,0 -5.49,1.91 -6.28,4.81 -0.92,3.47 1.13,7.04 4.59,7.97 l 50.53,13.57 c 3.49,0.91 7.03,-1.13 7.97,-4.59 0.93,-3.47 -1.12,-7.05 -4.59,-7.97 l -50.53,-13.57 c -0.56,-0.14 -1.13,-0.22 -1.69,-0.22"
         style="fill:#100f0d;fill-opacity:1;fill-rule:nonzero;stroke:none;filter:url(#filter584)"
         transform="matrix(0.13333333,0,0,-0.13333333,0,1066.6667)" />
      <path
         id="path372"
         d="m 5152.83,3773.84 c -2.87,0 -5.5,1.91 -6.28,4.81 -0.92,3.47 1.13,7.03 4.59,7.97 l 50.43,13.59 c 3.48,0.9 7.03,-1.13 7.97,-4.59 0.93,-3.47 -1.12,-7.04 -4.59,-7.97 l -50.43,-13.59 c -0.56,-0.14 -1.13,-0.22 -1.69,-0.22"
         style="fill:#100f0d;fill-opacity:1;fill-rule:nonzero;stroke:none;filter:url(#filter585)"
         transform="matrix(0.13333333,0,0,-0.13333333,0,1066.6667)" />
      <path
         id="path373"
         d="m 5567.44,3906.96 -96.18,43.05 -109.86,-245.16 h 115.54 l 74.51,166.57 15.99,35.54"
         style="fill:#f7c72b;fill-opacity:1;fill-rule:nonzero;stroke:none;filter:url(#filter586)"
         transform="matrix(0.13333333,0,0,-0.13333333,0,1066.6667)" />
      <path
         id="path374"
         d="m 5371.44,3711.36 h 101.29 l 86.11,192.33 -84.31,37.74 z m 105.5,-13.01 H 5361.4 c -2.21,0 -4.26,1.12 -5.46,2.97 -1.19,1.85 -1.38,4.18 -0.47,6.19 l 109.86,245.16 c 1.46,3.27 5.33,4.72 8.59,3.28 l 96.18,-43.05 c 1.57,-0.71 2.8,-2.01 3.42,-3.62 0.61,-1.62 0.56,-3.41 -0.15,-4.98 l -90.49,-202.1 c -1.05,-2.34 -3.38,-3.85 -5.94,-3.85"
         style="fill:#100f0d;fill-opacity:1;fill-rule:nonzero;stroke:none;filter:url(#filter587)"
         transform="matrix(0.13333333,0,0,-0.13333333,0,1066.6667)" />
      <path
         id="path375"
         d="m 5385.9,3821.66 c -0.89,0 -1.8,0.19 -2.66,0.58 -3.28,1.46 -4.74,5.31 -3.27,8.58 l 42.42,94.69 c 0.71,1.57 2,2.8 3.62,3.42 1.62,0.61 3.38,0.56 4.98,-0.15 l 121.69,-54.59 c 3.28,-1.47 4.74,-5.31 3.27,-8.58 -1.46,-3.29 -5.33,-4.76 -8.59,-3.28 l -115.77,51.93 -39.76,-88.75 c -1.08,-2.41 -3.45,-3.85 -5.93,-3.85"
         style="fill:#100f0d;fill-opacity:1;fill-rule:nonzero;stroke:none;filter:url(#filter588)"
         transform="matrix(0.13333333,0,0,-0.13333333,0,1066.6667)" />
      <path
         id="path376"
         d="m 5543.65,3982.84 v 0.1 c -15.8,6.98 -33.08,2.94 -38.59,-9.23 l -14.47,-32.3 57.5,-25.83 14.5,32.41 c 5.46,12.17 -3.05,27.75 -18.94,34.85"
         style="fill:#fefac9;fill-opacity:1;fill-rule:nonzero;stroke:none;filter:url(#filter589)"
         transform="matrix(0.13333333,0,0,-0.13333333,0,1066.6667)" />
      <path
         id="path377"
         d="m 5499.17,3944.68 45.64,-20.51 11.84,26.47 c 1.86,4.13 1,8.27 -0.05,11 -2.38,6.26 -8.22,11.97 -15.6,15.26 -0.3,0.14 -0.58,0.3 -0.85,0.46 -11.87,4.89 -25.46,1.85 -29.17,-6.32 z m 48.92,-35.61 c -0.91,0 -1.82,0.2 -2.67,0.58 l -57.5,25.83 c -3.27,1.46 -4.74,5.31 -3.26,8.58 l 14.47,32.31 c 4.6,10.17 15.65,16.48 28.82,16.48 6.11,0 12.45,-1.37 18.33,-3.96 0.36,-0.17 0.71,-0.35 1.02,-0.58 10.14,-4.8 17.91,-12.78 21.45,-22.03 2.71,-7.13 2.64,-14.56 -0.23,-20.95 l -14.5,-32.41 c -0.71,-1.57 -2.01,-2.8 -3.62,-3.42 -0.74,-0.28 -1.53,-0.43 -2.31,-0.43"
         style="fill:#100f0d;fill-opacity:1;fill-rule:nonzero;stroke:none;filter:url(#filter590)"
         transform="matrix(0.13333333,0,0,-0.13333333,0,1066.6667)" />
      <path
         id="path378"
         d="m 5466.69,3247.21 c -3.59,0 -6.5,2.91 -6.5,6.5 0,3.59 2.91,6.5 6.5,6.5 19.47,0 35.31,12.9 35.31,28.75 v 264.58 c 0,3.59 2.91,6.5 6.51,6.5 3.59,0 6.5,-2.91 6.5,-6.5 v -264.58 c 0,-23.02 -21.68,-41.75 -48.32,-41.75"
         style="fill:#100f0d;fill-opacity:1;fill-rule:nonzero;stroke:none;filter:url(#filter591)"
         transform="matrix(0.13333333,0,0,-0.13333333,0,1066.6667)" />
    </g>
  </g>
</svg>
